<svg width="24" height="24" viewBox="0 0 24 24" fill="none" xmlns="http://www.w3.org/2000/svg">
<path d="M18.1035 8.07255H6.43803L8.30745 6.16978L7.15816 5L4.47595 7.73005C4.1712 8.04033 4 8.4611 4 8.89983C4 9.33857 4.1712 9.75934 4.47595 10.0696L7.15816 12.7997L8.30745 11.6299L6.43803 9.72712H18.1035C18.1753 9.72712 18.2443 9.75618 18.2951 9.80789C18.3459 9.85961 18.3744 9.92975 18.3744 10.0029V16.0697C18.3744 16.1428 18.3459 16.2129 18.2951 16.2647C18.2443 16.3164 18.1753 16.3454 18.1035 16.3454H5.07904V18H18.1035C18.6065 18 19.0889 17.7966 19.4445 17.4346C19.8002 17.0726 20 16.5816 20 16.0697V10.0029C20 9.49093 19.8002 8.99994 19.4445 8.63793C19.0889 8.27592 18.6065 8.07255 18.1035 8.07255Z" fill="#8E64C5"/>
</svg>
